<?xml version="1.0" encoding="utf-8"?>
<!-- Generator: Adobe Illustrator 19.1.0, SVG Export Plug-In . SVG Version: 6.00 Build 0)  -->
<svg version="1.1" id="Layer_1" xmlns="http://www.w3.org/2000/svg" xmlns:xlink="http://www.w3.org/1999/xlink" x="0px" y="0px"
	 viewBox="0 0 75 75" style="enable-background:new 0 0 75 75;" xml:space="preserve">
<style type="text/css">
	.st0{fill:#914E8B;}
	.st1{fill:#D81F26;}
</style>
<g>
	<g>
		<path class="st0" d="M48.3,46l-7.2-0.1H24.9c-1.2,0-2.2-1-2.2-2.2v-3.8c0-0.8,0-1.6,0-2.4c0-1.2,0-2.4,0.1-3.6
			c0.1-2.9,0.5-5.5,1-7.9c0.6-2.4,1.3-4.9,2.9-7.1c1.2-1.7,3-3.5,6-3.4c1.7,0.1,2.8-0.6,3.5-2c0.7-1.3,1.8-2.1,3.3-2.6
			c0.5-0.1,0.9-0.1,1.1,0.1c0.2,0.1,0.4,0.4,0.3,0.9c-0.3,1.8,0.3,3.3,2,4.5c1.7,1.3,3.3,2.6,5,3.9c2.2,1.7,4.4,3.4,6.6,5.1
			c0.7,0.5,1,1.1,1.1,1.7c0.1,0.6-0.1,1.2-0.7,1.8c-0.6,0.8-1.3,1.5-1.9,2.3c-1.3,1.5-2.8,1.7-4.5,0.8c-0.6-0.3-1.2-0.6-1.7-1
			c-0.8-0.5-1.7-0.6-2.6-0.4c-1.8,0.5-3.5,0.1-5.2-1.2l-0.9-0.7C38,28.5,38,28.2,38.1,28c0.2-0.2,0.5-0.2,0.7-0.1l0.9,0.7
			c1.4,1.1,2.8,1.4,4.4,1c1.2-0.3,2.4-0.1,3.4,0.5c0.5,0.3,1.1,0.6,1.6,0.9c1.3,0.7,2.3,0.5,3.3-0.6c0.6-0.7,1.3-1.5,1.9-2.2
			c0.3-0.4,0.5-0.8,0.5-1.1c0-0.3-0.3-0.7-0.7-1c-2.2-1.7-4.4-3.4-6.6-5.1c-1.6-1.3-3.3-2.6-5-3.9c-1.9-1.4-2.7-3.3-2.3-5.4
			c0,0,0,0,0,0c0,0-0.1,0-0.2,0.1c-1.3,0.4-2.2,1.1-2.8,2.1c-0.9,1.8-2.4,2.6-4.4,2.6c-2.1-0.1-3.6,0.8-5.2,3
			c-1.5,2.1-2.2,4.5-2.8,6.8c-0.6,2.4-0.9,4.9-1,7.8c-0.1,1.2-0.1,2.4-0.1,3.6c0,0.8,0,1.6,0,2.4v3.7c0,0.7,0.6,1.3,1.3,1.3h16.2
			l7.2,0.1c0.6,0,1.1-0.4,1.1-1v-2.5c0-1.1-0.6-2.1-1.5-2.7c0,0-1.3-0.8-3.1-2.2c-0.2-0.2-0.2-0.5-0.1-0.7s0.5-0.2,0.7-0.1
			c1.7,1.3,3,2.2,3,2.2c1.2,0.8,2,2.1,2,3.5V44C50.3,45.1,49.4,46,48.3,46z"/>
	</g>
	<g>
		<path class="st1" d="M53.9,64.4H20.1c-0.2,0-0.4,0-0.5-0.1c-0.1-0.1-0.2-0.2-0.2-0.3c0-0.1,0-0.3,0-0.5c0-0.3,0.1-0.6,0.1-1l0-0.1
			c0.1-0.4,0.1-0.8,0.1-1.2c0-0.6,0.3-0.9,0.9-1.2c1.3-0.5,2.2-1.6,2.4-2.9c0.2-1.3-0.2-2.6-1.2-3.4c-0.8-0.7-1-1.3-0.7-2.3
			c0.1-0.2,0.1-0.5,0.1-0.7c0.1-0.5,0.1-0.7,0.2-0.9c0.1-0.1,0.2-0.3,0.3-0.3c0.2,0,0.5-0.1,0.9-0.1h29.4c0.2,0,0.3,0,0.4,0.1
			c0.1,0,0.2,0.2,0.3,0.3c0,0,0,0.1,0.1,0.3l0,0.3c0.1,0.6,0.2,1.3,0.2,1.9c0,0.4-0.1,0.6-0.4,0.8c-1.3,1-1.9,2.5-1.6,4
			c0.3,1.4,1.3,2.6,2.6,3c0.3,0.1,0.5,0.3,0.6,0.6c0.1,0.5,0.1,1,0.2,1.4c0.1,0.5,0.1,0.9,0.2,1.4c0,0.1,0,0.4-0.2,0.6
			c-0.1,0.1-0.2,0.2-0.3,0.2C54,64.3,54,64.4,53.9,64.4z M22.1,50.4c0,0.1,0,0.2-0.1,0.3c0,0.2,0,0.5-0.1,0.9
			c-0.2,0.5-0.1,0.8,0.4,1.3c1.2,1.1,1.8,2.7,1.5,4.3c-0.3,1.7-1.4,3-3,3.7c-0.3,0.1-0.3,0.1-0.3,0.4c0,0.4-0.1,0.9-0.2,1.3l0,0.1
			c0,0.3-0.1,0.6-0.1,0.8l33.3,0c0-0.4-0.1-0.7-0.2-1.1c-0.1-0.4-0.1-0.9-0.2-1.3c-1.7-0.5-2.9-1.9-3.2-3.7
			c-0.4-1.9,0.4-3.7,1.9-4.9c0,0,0,0,0,0c0,0,0,0,0-0.1c0-0.6-0.1-1.2-0.2-1.8l0-0.1l-29.2,0C22.4,50.4,22.2,50.4,22.1,50.4z"/>
	</g>
	<g>
		<path class="st1" d="M43.2,57.4h-12c-0.3,0-0.5-0.2-0.5-0.5s0.2-0.5,0.5-0.5h12c0.3,0,0.5,0.2,0.5,0.5S43.5,57.4,43.2,57.4z"/>
	</g>
</g>
</svg>
