<?xml version="1.0" encoding="utf-8"?>
<!-- Generator: Adobe Illustrator 19.1.0, SVG Export Plug-In . SVG Version: 6.00 Build 0)  -->
<svg version="1.1" id="Layer_1" xmlns="http://www.w3.org/2000/svg" xmlns:xlink="http://www.w3.org/1999/xlink" x="0px" y="0px"
	 viewBox="0 0 75 75" style="enable-background:new 0 0 75 75;" xml:space="preserve">
<style type="text/css">
	.st0{fill:#D81F26;}
	.st1{fill:#914E8B;}
</style>
<g>
	<g>
		<path class="st0" d="M42.8,43.7c-1.1,0-2.1-0.4-2.9-1.2c-1.6-1.6-1.6-4.3,0.1-6c0.2-0.2,0.5-0.2,0.7,0c0.2,0.2,0.2,0.5,0,0.7
			c-1.3,1.3-1.4,3.4-0.1,4.6c1.2,1.2,3.3,1.2,4.6-0.1c0.2-0.2,0.5-0.2,0.7,0s0.2,0.5,0,0.7C45,43.3,43.9,43.7,42.8,43.7z"/>
	</g>
	<g>
		<path class="st0" d="M41.3,41.1c-0.4-0.4-0.6-1-0.6-1.6c0-1.2,1-2.2,2.3-2.2c0.3,0,0.5,0.2,0.5,0.5c0,0.3-0.2,0.5-0.5,0.5
			c-0.8,0-1.4,0.6-1.4,1.3c0,0.3,0.1,0.7,0.4,0.9c0.3,0.2,0.6,0.4,1,0.4c0.3,0,0.5,0.2,0.5,0.5s-0.2,0.5-0.5,0.5
			C42.4,41.8,41.8,41.5,41.3,41.1C41.3,41.1,41.3,41.1,41.3,41.1z"/>
	</g>
	<path class="st1" d="M13.5,33.4c0-0.1,0-0.3,0.1-0.3c0.1-0.2,0.3-0.4,0.5-0.4c0.3,0,0.5,0.2,0.4,0.5c0,0.6-0.1,1.2,0,1.9
		c0.2,3.6,2,6.3,5.2,7.9c3.5,1.8,7,1.5,10.3-0.6c0.1-0.1,0.2-0.1,0.3-0.2c-1.3-1.2-2.5-2.4-3.7-3.6c-1.1-1.1-2.2-2.1-3.3-3.2
		c-2.2-2.3-3.5-5-3.9-8.1c0-0.3-0.1-0.5-0.1-0.9c-0.6,0.4-1.1,0.8-1.6,1.2c-0.5,0.4-0.8,0.5-1,0.2c-0.3-0.4,0.1-0.7,0.4-0.9
		c0.6-0.4,1.2-0.8,1.8-1.2c0.2-0.1,0.3-0.3,0.3-0.5c-0.2-1.3-0.3-2.7-0.5-4c-0.3-2.1,0.8-3.8,2.9-4c0.7-0.1,1.4,0,2.1,0.1
		c2.1,0.3,4.3,0.5,6.4,0.8c3.1,0.4,5.7,1.8,7.9,3.9c7.3,7.1,14.7,14.2,22,21.2c1.9,1.9,1.9,4.4,0,6.2c-2.7,2.6-5.3,5.1-8,7.7
		c-1.9,1.9-4.5,1.9-6.5,0c-4.7-4.6-9.4-9.1-14.1-13.7c-0.1-0.1-0.2-0.3-0.2-0.3c-1.1,0.5-2,1.1-3,1.5c-5.2,2-11.3-0.4-13.6-5.3
		c-0.5-1-0.8-2.1-1-3.2c0-0.1-0.1-0.2-0.1-0.3C13.5,34.8,13.5,34.1,13.5,33.4z M20.2,24.7c1-0.2,1.9-0.5,2.9-0.6
		c0.7-0.1,1.1-0.3,1.5-0.8c1.1-1.4,3.1-1.9,4.6-1.1c1.7,0.9,2.5,2.6,1.9,4.4C30.6,28,29,29,27.4,29c-1.7-0.1-3.2-1.2-3.5-2.7
		c-0.1-0.4-0.1-0.8-0.2-1.3c-1.1,0-2.2,0.3-3.2,0.7c-0.1,0-0.2,0.3-0.2,0.4c0.1,0.8,0.2,1.5,0.3,2.3c0.6,2.6,1.9,4.8,3.9,6.7
		c2.7,2.6,5.4,5.2,8.1,7.9c4.5,4.4,9.1,8.8,13.6,13.2c1.5,1.5,3.5,1.5,5,0c2.7-2.6,5.4-5.2,8.1-7.8c1.5-1.4,1.5-3.3,0-4.8
		c-7.3-7.1-14.6-14.1-21.9-21.1c-2-2-4.4-3.2-7.2-3.7c-1.8-0.3-3.6-0.5-5.4-0.7c-0.9-0.1-1.8-0.2-2.7-0.3c-1.5-0.1-2.7,1.1-2.6,2.6
		C19.8,21.8,20,23.2,20.2,24.7z M29.9,26.6c-1.1-0.9-3.6-1.7-5.1-1.6c-0.3,1.1,0.5,2.4,1.7,2.9C27.8,28.3,29.3,27.8,29.9,26.6z
		 M30.1,25.6c0.4-0.8-0.4-2.2-1.6-2.7c-1.3-0.5-2.9,0-3.4,1.1C27,24.2,28.6,24.7,30.1,25.6z"/>
	<g>
		<path class="st0" d="M44.1,38.8c0.3,0.1,0.5,0.2,0.6,0.4c0.3,0.5,0.2,1.1-0.3,1.4c-0.1,0.1-0.2,0-0.3-0.1s0-0.2,0.1-0.3
			c0.3-0.2,0.4-0.6,0.2-0.8c-0.1-0.1-0.2-0.2-0.4-0.2c-0.2,0-0.3,0-0.5,0.1c-0.1,0.1-0.2,0-0.3-0.1c-0.1-0.1,0-0.2,0.1-0.3
			C43.6,38.8,43.9,38.7,44.1,38.8C44.1,38.8,44.1,38.8,44.1,38.8z"/>
	</g>
</g>
</svg>
