<?xml version="1.0" encoding="utf-8"?>
<!-- Generator: Adobe Illustrator 19.1.0, SVG Export Plug-In . SVG Version: 6.00 Build 0)  -->
<svg version="1.1" id="Layer_1" xmlns="http://www.w3.org/2000/svg" xmlns:xlink="http://www.w3.org/1999/xlink" x="0px" y="0px"
	 viewBox="0 0 75 75" style="enable-background:new 0 0 75 75;" xml:space="preserve">
<style type="text/css">
	.st0{fill:none;stroke:#D81F26;stroke-linecap:round;stroke-linejoin:round;stroke-miterlimit:10;}
	.st1{fill:none;stroke:#914E8B;stroke-linecap:round;stroke-linejoin:round;stroke-miterlimit:10;}
</style>
<g>
	<path class="st0" d="M53.8,35.8c0.5,0,0.9-0.4,0.9-0.9V15.1c0-0.5-0.4-0.9-0.9-0.9h-3.1H19.5c-0.5,0-0.9,0.4-0.9,0.9v3.1l-4.2,2.1
		l4.2,2.1v12.6c0,0.5,0.4,0.9,0.9,0.9h3.1"/>
	<path class="st1" d="M60.5,38.5L60.5,38.5L60.5,38.5c0-1.5-1.2-2.7-2.3-2.7l-5.3,0v0l-6.4,0c2.1-3.3,3.2-7.5,3.2-11.8
		c0-1.7-1.4-3.2-3.2-3.2c-1.7,0-3.2,1.4-3.2,3.2c0,6.5-5.2,11.8-11.8,11.8h-1.1l0,23l0,0l0,1.9l22.4,0h2c1.4-0.1,2.6-1.3,2.6-2.7
		c0,0,0,0,0,0c0-1.4-1.1-2.6-2.2-2.7h-2.4v-1.1h3.3c1.1,0,2.3-1.2,2.3-2.7l0,0c0-1.5-1.2-2.7-2.3-2.7v0h-3.3v-1.1h4.3
		c1.1,0,2.3-1.2,2.3-2.7l0,0v0v0l0,0c0-1.5-1.2-2.7-2.3-2.7v0h-4.3v-1.1h5.3C59.3,41.2,60.5,40,60.5,38.5L60.5,38.5L60.5,38.5z"/>
	<rect x="22.3" y="35.8" class="st1" width="8.2" height="24.9"/>
</g>
</svg>
