<?xml version="1.0" encoding="utf-8"?>
<!-- Generator: Adobe Illustrator 19.1.0, SVG Export Plug-In . SVG Version: 6.00 Build 0)  -->
<svg version="1.1" id="Layer_1" xmlns="http://www.w3.org/2000/svg" xmlns:xlink="http://www.w3.org/1999/xlink" x="0px" y="0px"
	 viewBox="0 0 75 75" style="enable-background:new 0 0 75 75;" xml:space="preserve">
<style type="text/css">
	.st0{fill:none;stroke:#914E8B;stroke-miterlimit:10;}
	.st1{fill:none;stroke:#D72027;stroke-linecap:round;stroke-linejoin:round;stroke-miterlimit:10;}
	.st2{fill:#D72027;}
</style>
<g>
	<path class="st0" d="M41.9,48.2h-8.7c-0.3,0-0.5-0.2-0.5-0.5v-2.8c0-0.3,0.2-0.5,0.5-0.5h8.7c0.3,0,0.5,0.2,0.5,0.5v2.8
		C42.4,48,42.2,48.2,41.9,48.2z"/>
	<path class="st0" d="M37.2,26.7l-5.3,9.1c-0.9,1.5-0.7,3.3,0.4,4.6l0.7,0.8c0.7,0.8,1,1.8,1,2.8v0.4h7.2v-0.4c0-1,0.4-2,1-2.8
		l0.7-0.8c1.1-1.3,1.3-3.2,0.4-4.6L38,26.7C37.8,26.4,37.3,26.4,37.2,26.7z"/>
	<path class="st0" d="M40.6,56.2h-6.1c-0.3,0-0.5-0.2-0.5-0.5l0-7.5h7.1l0,7.5C41.1,56,40.9,56.2,40.6,56.2z"/>
	<circle class="st0" cx="37.6" cy="37.5" r="2.2"/>
	<line class="st1" x1="5.7" y1="19.9" x2="69.5" y2="19.9"/>
	<path class="st1" d="M5.7,51c0-17.2,13.9-31.1,31.1-31.1S67.9,33.8,67.9,51"/>
	<rect x="36.5" y="18.8" class="st2" width="2.1" height="2.1"/>
	<rect x="66.9" y="50" class="st2" width="2.1" height="2.1"/>
	<rect x="4.6" y="50" class="st2" width="2.1" height="2.1"/>
	<circle class="st2" cx="5.7" cy="19.9" r="0.9"/>
	<circle class="st2" cx="69.5" cy="19.9" r="0.9"/>
</g>
</svg>
