<?xml version="1.0" encoding="utf-8"?>
<!-- Generator: Adobe Illustrator 19.1.0, SVG Export Plug-In . SVG Version: 6.00 Build 0)  -->
<svg version="1.1" id="Layer_1" xmlns="http://www.w3.org/2000/svg" xmlns:xlink="http://www.w3.org/1999/xlink" x="0px" y="0px"
	 viewBox="0 0 75 75" style="enable-background:new 0 0 75 75;" xml:space="preserve">
<style type="text/css">
	.st0{fill:#914E8B;}
	.st1{opacity:0.28;}
	.st2{fill:#D81F26;}
	.st3{fill:none;stroke:#914E8B;stroke-linecap:round;stroke-linejoin:round;stroke-miterlimit:10;}
	.st4{fill:none;stroke:#914E8B;stroke-miterlimit:10;}
</style>
<g>
	<g>
		<g>
			<path class="st0" d="M61.3,52.4H13.7c-4.4,0-8-3.3-8-7.3V21.2c0-4,3.6-7.3,8-7.3h47.6c4.4,0,8,3.3,8,7.3v23.9
				C69.3,49.1,65.7,52.4,61.3,52.4z M13.7,14.9c-3.9,0-7,2.8-7,6.3v23.9c0,3.5,3.1,6.3,7,6.3h47.6c3.9,0,7-2.8,7-6.3V21.2
				c0-3.5-3.1-6.3-7-6.3H13.7z"/>
		</g>
	</g>
	<g>
		<g>
			<path class="st0" d="M56.5,48.2H18.5c-4.4,0-8-3.3-8-7.3V25.4c0-4,3.6-7.3,8-7.3h38.1c4.4,0,8,3.3,8,7.3v15.6
				C64.6,44.9,61,48.2,56.5,48.2z M18.5,19c-3.9,0-7,2.8-7,6.3v15.6c0,3.5,3.1,6.3,7,6.3h38.1c3.9,0,7-2.8,7-6.3V25.4
				c0-3.5-3.1-6.3-7-6.3H18.5z"/>
		</g>
	</g>
	<g class="st1">
		<rect x="17.5" y="23.5" class="st2" width="38.8" height="19.3"/>
	</g>
	<g>
		<path class="st0" d="M53.4,52.4v1.1c0,0.6-0.5,1.1-1.1,1.1H23.3c-0.6,0-1.1-0.5-1.1-1.1v-1.1H53.4 M54.4,51.4H21.2v2.1
			c0,1.2,1,2.1,2.1,2.1h28.9c1.2,0,2.1-1,2.1-2.1V51.4L54.4,51.4z"/>
	</g>
	<g>
		<path class="st0" d="M42,55.7v12.7h-8.3V55.7H42 M43,54.7H32.6v14.7H43V54.7L43,54.7z"/>
	</g>
	<line class="st3" x1="19.8" y1="68.9" x2="56.3" y2="68.9"/>
	<rect x="21.5" y="8.4" class="st4" width="2.8" height="5.8"/>
	<rect x="35.5" y="8.4" class="st4" width="2.8" height="5.8"/>
	<rect x="49.1" y="8.4" class="st4" width="2.8" height="5.8"/>
	<path class="st4" d="M54.3,7L54.3,7c0,0.8-0.6,1.4-1.4,1.4h-4.8c-0.8,0-1.4-0.6-1.4-1.4v0c0-0.8,0.6-1.4,1.4-1.4h4.8
		C53.7,5.6,54.3,6.2,54.3,7z"/>
	<path class="st4" d="M40.7,7L40.7,7c0,0.8-0.6,1.4-1.4,1.4h-4.8c-0.8,0-1.4-0.6-1.4-1.4v0c0-0.8,0.6-1.4,1.4-1.4h4.8
		C40.1,5.6,40.7,6.2,40.7,7z"/>
	<path class="st4" d="M26.7,7L26.7,7c0,0.8-0.6,1.4-1.4,1.4h-4.8c-0.8,0-1.4-0.6-1.4-1.4v0c0-0.8,0.6-1.4,1.4-1.4h4.8
		C26.1,5.6,26.7,6.2,26.7,7z"/>
</g>
</svg>
