<?xml version="1.0" encoding="utf-8"?>
<!-- Generator: Adobe Illustrator 19.1.0, SVG Export Plug-In . SVG Version: 6.00 Build 0)  -->
<svg version="1.1" id="Layer_1" xmlns="http://www.w3.org/2000/svg" xmlns:xlink="http://www.w3.org/1999/xlink" x="0px" y="0px"
	 viewBox="0 0 75 75" style="enable-background:new 0 0 75 75;" xml:space="preserve">
<style type="text/css">
	.st0{fill:#914E8B;}
	.st1{fill:#D81F26;}
</style>
<g>
	<g>
		<g>
			<path class="st0" d="M54.2,23.7H22.7l3.6-7.7c0.5-1,1.4-1.7,2.4-1.7H48c1.2,0,2.2,0.6,2.6,1.7L54.2,23.7z M24.2,22.7h28.5l-3-6.3
				c-0.3-0.7-1-1.1-1.8-1.1H28.7c-0.6,0-1.2,0.4-1.6,1.1L24.2,22.7z"/>
		</g>
	</g>
	<g>
		<g>
			<path class="st0" d="M62.9,60.7H12.1c-3,0-5.4-2.4-5.4-5.4v-27c0-3,2.4-5.4,5.4-5.4h50.8c3,0,5.4,2.4,5.4,5.4v27
				C68.3,58.3,65.9,60.7,62.9,60.7z M12.1,23.9c-2.4,0-4.4,2-4.4,4.4v27c0,2.4,2,4.4,4.4,4.4h50.8c2.4,0,4.4-2,4.4-4.4v-27
				c0-2.4-2-4.4-4.4-4.4H12.1z"/>
		</g>
	</g>
	<g>
		<g>
			<path class="st1" d="M19.6,23.9h-6.5v-2.5c0-0.8,0.6-1.4,1.4-1.4h3.7c0.8,0,1.4,0.6,1.4,1.4V23.9z M14.1,23h4.6v-1.5
				c0-0.2-0.2-0.4-0.4-0.4h-3.7c-0.2,0-0.4,0.2-0.4,0.4V23z"/>
		</g>
	</g>
	<g>
		<g>
			<path class="st0" d="M20.7,23.9V23c2.4,0,3-1.6,3.1-1.6l0.9,0.3C24.7,21.7,23.9,23.9,20.7,23.9z"/>
		</g>
	</g>
	<g>
		<g>
			<path class="st0" d="M56.2,23.9c-3.1,0-3.9-2.2-4-2.3l0.9-0.3l-0.4,0.2l0.4-0.2c0,0.1,0.6,1.6,3.1,1.6V23.9z"/>
		</g>
	</g>
	<g>
		<g>
			<path class="st1" d="M38.5,56.2c-7.7,0-13.9-6.2-13.9-13.9c0-7.7,6.2-13.9,13.9-13.9s13.9,6.2,13.9,13.9
				C52.4,50,46.1,56.2,38.5,56.2z M38.5,29.4c-7.1,0-12.9,5.8-12.9,12.9s5.8,12.9,12.9,12.9s12.9-5.8,12.9-12.9S45.6,29.4,38.5,29.4
				z"/>
		</g>
	</g>
	<g>
		<g>
			<path class="st1" d="M38.5,53.1c-5.9,0-10.8-4.8-10.8-10.8c0-5.9,4.8-10.8,10.8-10.8s10.8,4.8,10.8,10.8
				C49.2,48.3,44.4,53.1,38.5,53.1z M38.5,32.5c-5.4,0-9.8,4.4-9.8,9.8s4.4,9.8,9.8,9.8s9.8-4.4,9.8-9.8S43.9,32.5,38.5,32.5z"/>
		</g>
	</g>
	<g>
		<g>
			<path class="st0" d="M61.6,34.5c-0.3,0-0.5-0.2-0.5-0.5v-4.4c0-0.3,0.2-0.5,0.5-0.5c0.3,0,0.5,0.2,0.5,0.5V34
				C62.1,34.3,61.8,34.5,61.6,34.5z"/>
		</g>
	</g>
</g>
</svg>
