<?xml version="1.0" encoding="utf-8"?>
<!-- Generator: Adobe Illustrator 19.1.0, SVG Export Plug-In . SVG Version: 6.00 Build 0)  -->
<svg version="1.1" id="Layer_1" xmlns="http://www.w3.org/2000/svg" xmlns:xlink="http://www.w3.org/1999/xlink" x="0px" y="0px"
	 viewBox="0 0 75 75" style="enable-background:new 0 0 75 75;" xml:space="preserve">
<style type="text/css">
	.st0{fill:#914E8B;}
	.st1{fill:#FFFFFF;}
	.st2{fill:#D81F26;}
	.st3{opacity:0.28;}
	.st4{opacity:0.29;}
</style>
<g>
	<g>
		<g>
			<path class="st0" d="M59.1,62.3H16.2c-4,0-7.3-3.3-7.3-7.3V31.1c0-4,3.3-7.3,7.3-7.3h42.9c4,0,7.3,3.3,7.3,7.3V55
				C66.3,59,63.1,62.3,59.1,62.3z M16.2,24.8c-3.5,0-6.3,2.8-6.3,6.3V55c0,3.5,2.8,6.3,6.3,6.3h42.9c3.5,0,6.3-2.8,6.3-6.3V31.1
				c0-3.5-2.8-6.3-6.3-6.3H16.2z"/>
		</g>
	</g>
	<g>
		<g>
			<path class="st0" d="M54.7,57.9H20.4c-4,0-7.3-3.3-7.3-7.3V35.1c0-4,3.3-7.3,7.3-7.3h34.3c4,0,7.3,3.3,7.3,7.3v15.6
				C62,54.6,58.7,57.9,54.7,57.9z M20.4,28.8c-3.5,0-6.3,2.8-6.3,6.3v15.6c0,3.5,2.8,6.3,6.3,6.3h34.3c3.5,0,6.3-2.8,6.3-6.3V35.1
				c0-3.5-2.8-6.3-6.3-6.3H20.4z"/>
		</g>
	</g>
	<g>
		<g>
			<path class="st1" d="M66.9,28v5.9c0,1.9-1.5,3.4-3.4,3.4h-8.9c-1.9,0-3.4-1.5-3.4-3.4V10.6c0-1.9,1.5-3.4,3.4-3.4h8.9
				c1.9,0,3.4,1.5,3.4,3.4v5.2"/>
		</g>
		<g>
			<path class="st2" d="M63.5,37.7h-8.9c-2.1,0-3.9-1.7-3.9-3.9V10.6c0-2.1,1.7-3.9,3.9-3.9h8.9c2.1,0,3.9,1.7,3.9,3.9v5.2h-0.9
				v-5.2c0-1.6-1.3-2.9-2.9-2.9h-8.9c-1.6,0-2.9,1.3-2.9,2.9v23.2c0,1.6,1.3,2.9,2.9,2.9h8.9c1.6,0,2.9-1.3,2.9-2.9V28h0.9v5.9
				C67.4,36,65.7,37.7,63.5,37.7z"/>
		</g>
	</g>
	<g>
		<g>
			<rect x="51.3" y="10.4" class="st2" width="15.7" height="0.9"/>
		</g>
	</g>
	<g>
		<g>
			<rect x="51.3" y="32.8" class="st2" width="15.7" height="0.9"/>
		</g>
	</g>
	<g>
		<g>
			<rect x="66.4" y="15.8" class="st2" width="0.9" height="12.5"/>
		</g>
	</g>
	<g>
		<g>
			<path class="st0" d="M12.4,68.3c-0.5,0-2.9-0.1-4.4-1.8c-1-1.1-1.4-2.7-1-4.8L7,61.3h61.2l0,0.5c-0.1,2.2-1.4,6.4-5.4,6.4
				c0,0,0,0-0.1,0c-4.6-0.1-49.8,0-50.2,0C12.5,68.3,12.4,68.3,12.4,68.3z M7.8,62.3c-0.2,1.5,0.1,2.7,0.9,3.6
				c1.4,1.5,3.7,1.4,3.8,1.4c0.5,0,45.7-0.1,50.2,0c0,0,0,0,0.1,0c3.4,0,4.2-3.7,4.4-5H7.8z"/>
		</g>
	</g>
	<g class="st3">
		<rect x="19.3" y="33.8" class="st2" width="25.7" height="1.5"/>
	</g>
	<g class="st3">
		<rect x="19.3" y="41.6" class="st2" width="35.5" height="11.3"/>
	</g>
	<g class="st3">
		<rect x="19.3" y="37.7" class="st2" width="25.7" height="1.5"/>
	</g>
	<g class="st4">
		<rect x="53.8" y="13.7" class="st0" width="10.5" height="1.5"/>
	</g>
	<g class="st4">
		<rect x="53.8" y="19.5" class="st0" width="10.5" height="11.3"/>
	</g>
	<g class="st4">
		<rect x="53.8" y="16.1" class="st0" width="10.5" height="1.5"/>
	</g>
</g>
</svg>
