<?xml version="1.0" encoding="utf-8"?>
<!-- Generator: Adobe Illustrator 19.1.0, SVG Export Plug-In . SVG Version: 6.00 Build 0)  -->
<svg version="1.1" id="Layer_1" xmlns="http://www.w3.org/2000/svg" xmlns:xlink="http://www.w3.org/1999/xlink" x="0px" y="0px"
	 viewBox="0 0 75 75" style="enable-background:new 0 0 75 75;" xml:space="preserve">
<style type="text/css">
	.st0{fill:#914E8B;}
	.st1{fill:#D81F26;}
</style>
<g>
	<g>
		<g>
			<path class="st0" d="M60.8,62.5h-47c-4,0-7.3-3.3-7.3-7.3V20.6c0-4,3.3-7.3,7.3-7.3h47c4,0,7.3,3.3,7.3,7.3v34.7
				C68,59.2,64.8,62.5,60.8,62.5z M13.8,14.3c-3.5,0-6.3,2.8-6.3,6.3v34.7c0,3.5,2.8,6.3,6.3,6.3h47c3.5,0,6.3-2.8,6.3-6.3V20.6
				c0-3.5-2.8-6.3-6.3-6.3H13.8z"/>
		</g>
	</g>
	<g>
		<g>
			<rect x="7" y="21.7" class="st0" width="60.6" height="0.9"/>
		</g>
	</g>
	<g>
		<g>
			<path class="st1" d="M14,18.6h-2.5c-0.3,0-0.5-0.2-0.5-0.5c0-0.3,0.2-0.5,0.5-0.5H14c0.3,0,0.5,0.2,0.5,0.5
				C14.5,18.3,14.3,18.6,14,18.6z"/>
		</g>
	</g>
	<g>
		<g>
			<path class="st1" d="M18.4,18.6H16c-0.3,0-0.5-0.2-0.5-0.5c0-0.3,0.2-0.5,0.5-0.5h2.5c0.3,0,0.5,0.2,0.5,0.5
				C18.9,18.3,18.7,18.6,18.4,18.6z"/>
		</g>
	</g>
	<g>
		<g>
			<path class="st1" d="M23.1,18.6h-2.5c-0.3,0-0.5-0.2-0.5-0.5c0-0.3,0.2-0.5,0.5-0.5h2.5c0.3,0,0.5,0.2,0.5,0.5
				C23.6,18.3,23.4,18.6,23.1,18.6z"/>
		</g>
	</g>
	<g>
		<g>
			<path class="st1" d="M32.4,52.1c-0.1,0-0.1,0-0.2,0C32,52,31.9,51.7,32,51.5l8.2-20.6c0.1-0.2,0.4-0.4,0.6-0.3
				c0.2,0.1,0.4,0.4,0.3,0.6l-8.2,20.6C32.8,52,32.6,52.1,32.4,52.1z"/>
		</g>
	</g>
	<g>
		<g>
			<g>
				<path class="st1" d="M47.7,48.7c-0.1,0-0.2,0-0.3-0.1c-0.2-0.2-0.2-0.5,0-0.7l6.9-6.9c0.2-0.2,0.5-0.2,0.7,0
					c0.2,0.2,0.2,0.5,0,0.7L48,48.6C47.9,48.7,47.8,48.7,47.7,48.7z"/>
			</g>
		</g>
		<g>
			<g>
				<path class="st1" d="M54.6,41.8c-0.1,0-0.2,0-0.3-0.1l-6.9-6.9c-0.2-0.2-0.2-0.5,0-0.7s0.5-0.2,0.7,0l6.9,6.9
					c0.2,0.2,0.2,0.5,0,0.7C54.8,41.8,54.7,41.8,54.6,41.8z"/>
			</g>
		</g>
	</g>
	<g>
		<g>
			<g>
				<path class="st1" d="M26.2,48.7c-0.1,0-0.2,0-0.3-0.1L19,41.7c-0.2-0.2-0.2-0.5,0-0.7c0.2-0.2,0.5-0.2,0.7,0l6.9,6.9
					c0.2,0.2,0.2,0.5,0,0.7C26.4,48.7,26.3,48.7,26.2,48.7z"/>
			</g>
		</g>
		<g>
			<g>
				<path class="st1" d="M19.3,41.8c-0.1,0-0.2,0-0.3-0.1c-0.2-0.2-0.2-0.5,0-0.7l6.9-6.9c0.2-0.2,0.5-0.2,0.7,0
					c0.2,0.2,0.2,0.5,0,0.7l-6.9,6.9C19.5,41.8,19.4,41.8,19.3,41.8z"/>
			</g>
		</g>
	</g>
</g>
</svg>
